<svg id="line" height="512" viewBox="0 0 64 64" width="512" xmlns="http://www.w3.org/2000/svg"><path d="m62 33h-3.6a20.88 20.88 0 0 0 -2.4-5.88l2.56-2.56a1 1 0 0 0 0-1.41l-5.66-5.66a1 1 0 0 0 -1.41 0l-2.56 2.56a20.88 20.88 0 0 0 -5.93-2.45v-3.6a1 1 0 0 0 -1-1h-8a1 1 0 0 0 -1 1v3.6a20.88 20.88 0 0 0 -5.88 2.45l-2.56-2.56a1 1 0 0 0 -1.41 0l-5.66 5.66a1 1 0 0 0 0 1.41l2.56 2.56a20.88 20.88 0 0 0 -2.45 5.88h-3.6a1 1 0 0 0 -1 1v8a1 1 0 0 0 1 1h3.6a20.88 20.88 0 0 0 2.45 5.88l-2.56 2.56a1 1 0 0 0 0 1.41l5.66 5.66a1 1 0 0 0 1.41 0l2.56-2.51a20.88 20.88 0 0 0 5.88 2.4v3.6a1 1 0 0 0 1 1h8a1 1 0 0 0 1-1v-3.6a20.88 20.88 0 0 0 5.88-2.4l2.56 2.56a1 1 0 0 0 1.41 0l5.66-5.66a1 1 0 0 0 0-1.41l-2.51-2.61a20.88 20.88 0 0 0 2.4-5.88h3.6a1 1 0 0 0 1-1v-8a1 1 0 0 0 -1-1zm-24 13a8 8 0 1 1 8-8 8 8 0 0 1 -8 8z" fill="#c4a2fc"/><g fill="#151a6a"><path d="m48 1h-44a3 3 0 0 0 -3 3v44a3 3 0 0 0 3 3h44a3 3 0 0 0 3-3v-44a3 3 0 0 0 -3-3zm1 47a1 1 0 0 1 -1 1h-44a1 1 0 0 1 -1-1v-38h46zm0-40h-46v-4a1 1 0 0 1 1-1h44a1 1 0 0 1 1 1z"/><path d="m29 35h13a1 1 0 0 0 1-1v-12a1 1 0 0 0 -1-1h-13a1 1 0 0 0 -1 1v12a1 1 0 0 0 1 1zm1-12h11v10h-11z"/><path d="m10 26h13a1 1 0 0 0 1-1v-11a1 1 0 0 0 -1-1h-13a1 1 0 0 0 -1 1v11a1 1 0 0 0 1 1zm1-11h11v9h-11z"/><path d="m29 40h13a1 1 0 0 0 0-2h-13a1 1 0 0 0 0 2z"/><path d="m10 31h13a1 1 0 0 0 0-2h-13a1 1 0 0 0 0 2z"/><path d="m29 46h13a1 1 0 0 0 0-2h-13a1 1 0 0 0 0 2z"/><path d="m10 37h13a1 1 0 0 0 0-2h-13a1 1 0 0 0 0 2z"/></g></svg>