<svg id="line" height="512" viewBox="0 0 64 64" width="512" xmlns="http://www.w3.org/2000/svg"><path d="m21 56a3 3 0 0 0 3 3h36a3 3 0 0 0 3-3v-37h-42zm28.293-25.293a1 1 0 0 1 1.414-1.414l8 8a1 1 0 0 1 0 1.414l-8 8a1 1 0 0 1 -1.414-1.414l7.293-7.293zm-12.193 14.846 8-16a1 1 0 0 1 1.79.894l-8 16a1 1 0 1 1 -1.79-.894zm-11.812-8.26 8-8a1 1 0 0 1 1.414 1.414l-7.288 7.293 7.293 7.293a1 1 0 0 1 -1.414 1.414l-8-8a1 1 0 0 1 0-1.414z" fill="#c4a2fc"/><path d="m60 9h-36a3 3 0 0 0 -3 3v5h42v-5a3 3 0 0 0 -3-3zm-8 6h-2a1 1 0 0 1 0-2h2a1 1 0 0 1 0 2zm6 0h-2a1 1 0 0 1 0-2h2a1 1 0 0 1 0 2z" fill="#c4a2fc"/><g fill="#151a6a"><path d="m48 5h-44a3 3 0 0 0 -3 3v26a3 3 0 0 0 3 3h14.613l-1.358 4.075a4.994 4.994 0 0 0 -4.255 4.925 1 1 0 0 0 1 1h24a1 1 0 0 0 1-1 4.994 4.994 0 0 0 -4.255-4.925l-1.358-4.075h14.613a3 3 0 0 0 3-3v-26a3 3 0 0 0 -3-3zm-11.171 40h-21.658a3.007 3.007 0 0 1 2.829-2h16a3.007 3.007 0 0 1 2.829 2zm-4.216-4h-13.226l1.333-4h10.56zm16.387-7a1 1 0 0 1 -1 1h-44a1 1 0 0 1 -1-1v-26a1 1 0 0 1 1-1h44a1 1 0 0 1 1 1z"/><path d="m8 11h-2a1 1 0 0 0 0 2h2a1 1 0 0 0 0-2z"/><path d="m8 17h-2a1 1 0 0 0 0 2h2a1 1 0 0 0 0-2z"/><path d="m8 23h-2a1 1 0 0 0 0 2h2a1 1 0 0 0 0-2z"/><path d="m8 29h-2a1 1 0 0 0 0 2h2a1 1 0 0 0 0-2z"/><path d="m33 12a1 1 0 0 0 -1-1h-19a1 1 0 0 0 0 2h19a1 1 0 0 0 1-1z"/><path d="m28 18a1 1 0 0 0 -1-1h-11a1 1 0 0 0 0 2h11a1 1 0 0 0 1-1z"/><path d="m30 18a1 1 0 0 0 1 1h4a1 1 0 0 0 0-2h-4a1 1 0 0 0 -1 1z"/><path d="m26 24a1 1 0 0 0 1 1h11a1 1 0 0 0 0-2h-11a1 1 0 0 0 -1 1z"/><path d="m41 29h-19a1 1 0 0 0 0 2h19a1 1 0 0 0 0-2z"/><path d="m24 24a1 1 0 0 0 -1-1h-4a1 1 0 0 0 0 2h4a1 1 0 0 0 1-1z"/></g></svg>