<svg id="Capa_1" enable-background="new 0 0 512 512" height="512" viewBox="0 0 512 512" width="512" xmlns="http://www.w3.org/2000/svg"><g><g><g><path d="m512 72.638v366.724c0 5.687-4.615 10.302-10.302 10.302h-491.396c-5.687 0-10.302-4.615-10.302-10.302v-366.724c0-5.687 4.615-10.302 10.302-10.302h491.396c5.687 0 10.302 4.615 10.302 10.302z" fill="#e8e6ed"/><path d="m512 72.638v366.724c0 5.687-4.615 10.302-10.302 10.302h-123.395c113.979-98.66 111.445-328.061 108.756-387.327h14.639c5.687-.001 10.302 4.614 10.302 10.301z" fill="#d1d0d8"/><path d="m0 127.269h512v128.731h-512z" fill="#8f67ff"/><path d="m512 127.269v128.731h-38.292c9.117-46.523 12.651-92.139 13.742-128.731z" fill="#7a48ff"/><path d="m512 72.638v54.631h-512v-54.631c0-5.687 4.615-10.302 10.302-10.302h491.396c5.687 0 10.302 4.615 10.302 10.302z" fill="#d1d0d8"/><path d="m512 72.638v54.631h-24.549c.845-28.289.237-51.19-.391-64.932h14.639c5.686-.001 10.301 4.614 10.301 10.301z" fill="#aaaab2"/><g fill="#717177"><path d="m41.255 102.531h-.116c-4.267 0-7.726-3.459-7.726-7.726s3.459-7.726 7.726-7.726h.116c4.267 0 7.726 3.459 7.726 7.726 0 4.266-3.459 7.726-7.726 7.726z"/><path d="m64.581 102.531h-.116c-4.267 0-7.726-3.459-7.726-7.726s3.459-7.726 7.726-7.726h.116c4.267 0 7.726 3.459 7.726 7.726 0 4.266-3.459 7.726-7.726 7.726z"/><path d="m87.907 102.531h-.116c-4.267 0-7.726-3.459-7.726-7.726s3.459-7.726 7.726-7.726h.116c4.267 0 7.726 3.459 7.726 7.726.001 4.266-3.458 7.726-7.726 7.726z"/><path d="m470.862 102.531h-14.377c-4.268 0-7.726-3.459-7.726-7.726s3.459-7.726 7.726-7.726h14.377c4.268 0 7.726 3.459 7.726 7.726.001 4.266-3.458 7.726-7.726 7.726z"/></g></g></g><g><path d="m156.072 224.064v78.294c0 5.687-4.615 10.302-10.302 10.302h-78.293c-5.687 0-10.302-4.615-10.302-10.302v-78.294c0-5.687 4.615-10.302 10.302-10.302h78.294c5.686.001 10.301 4.616 10.301 10.302z" fill="#ffd100"/><path d="m156.072 224.064v78.294c0 5.687-4.615 10.302-10.302 10.302h-40.27c28.485-32.451 30.411-73.895 28.279-98.897h11.991c5.687 0 10.302 4.615 10.302 10.301z" fill="#ffb800"/></g><g fill="#aaaab2"><path d="m156.072 378.076h-98.897c-4.267 0-7.726-3.459-7.726-7.726s3.459-7.726 7.726-7.726h98.897c4.267 0 7.726 3.459 7.726 7.726.001 4.267-3.458 7.726-7.726 7.726z"/><path d="m72.628 350.262h-15.453c-4.267 0-7.726-3.459-7.726-7.726s3.459-7.726 7.726-7.726h15.453c4.267 0 7.726 3.459 7.726 7.726 0 4.266-3.459 7.726-7.726 7.726z"/><path d="m156.072 399.71h-98.897c-4.267 0-7.726-3.459-7.726-7.726s3.459-7.726 7.726-7.726h98.897c4.267 0 7.726 3.459 7.726 7.726.001 4.267-3.458 7.726-7.726 7.726z"/></g><path d="m463.674 304.419v98.897c0 5.687-4.615 10.302-10.302 10.302h-226.217c-5.687 0-10.302-4.615-10.302-10.302v-98.897c0-5.687 4.615-10.302 10.302-10.302h226.218c5.686 0 10.301 4.615 10.301 10.302z" fill="#bdbcc4"/><path d="m463.674 304.419v98.897c0 5.687-4.615 10.302-10.302 10.302h-68.868c39.394-36.098 51.035-87.225 54.311-119.501h14.557c5.687 0 10.302 4.615 10.302 10.302z" fill="#aaaab2"/><path d="m156.072 421.344h-98.897c-4.267 0-7.726-3.459-7.726-7.726s3.459-7.726 7.726-7.726h98.897c4.267 0 7.726 3.459 7.726 7.726s-3.458 7.726-7.726 7.726z" fill="#aaaab2"/><path d="m463.674 378.612v24.704c0 5.687-4.615 10.302-10.302 10.302h-226.217c-5.687 0-10.302-4.615-10.302-10.302v-24.704z" fill="#898993"/><path d="m463.674 378.612v24.704c0 5.687-4.615 10.302-10.302 10.302h-68.868c11.62-10.652 20.83-22.602 28.114-35.006z" fill="#717177"/><path d="m249.477 357.221c-2.074 0-4.143-.83-5.665-2.47-2.903-3.128-2.721-8.017.407-10.919l6.947-6.448-6.947-6.448c-3.128-2.902-3.31-7.791-.407-10.919 2.903-3.127 7.792-3.31 10.919-.407l13.048 12.111c1.575 1.462 2.471 3.514 2.471 5.663s-.895 4.201-2.471 5.663l-13.048 12.111c-1.487 1.38-3.373 2.063-5.254 2.063z" fill="#e8e6ed"/><path d="m471.772 236.942h-36.756c-4.268 0-7.726-3.459-7.726-7.726s3.459-7.726 7.726-7.726h36.756c4.268 0 7.726 3.459 7.726 7.726 0 4.266-3.459 7.726-7.726 7.726z" fill="#e8e6ed"/><path d="m405.711 236.942h-12.196c-4.268 0-7.726-3.459-7.726-7.726s3.459-7.726 7.726-7.726h12.196c4.268 0 7.726 3.459 7.726 7.726.001 4.266-3.458 7.726-7.726 7.726z" fill="#e8e6ed"/></g></svg>